<svg xmlns="http://www.w3.org/2000/svg" width="30" height="30" viewBox="0,0,256,256">
  <g fill="currentColor">
    <g transform="scale(10.0,10.0)">
      <path d="M21.80078,0h-19.60156c-1.21484,0 -2.19922,0.98438 -2.19922,2.19922v19.60156c0,1.21484 0.98438,2.19922 2.19922,2.19922h19.60156c1.21484,0 2.19922,-0.98437 2.19922,-2.19922v-19.60156c0,-1.21484 -0.98437,-2.19922 -2.19922,-2.19922zM19.05078,14.08984c1.44141,1.33984 1.73828,1.98828 1.78906,2.07031c0.59766,0.98828 -0.66016,1.06641 -0.66016,1.06641l-2.40625,0.03516c0,0 -0.51562,0.10156 -1.19531,-0.36719c-0.89844,-0.61719 -1.75,-2.22266 -2.40625,-2.01172c-0.67187,0.21094 -0.65234,1.65625 -0.65234,1.65625c0,0 0.00781,0.25391 -0.14453,0.42188c-0.16797,0.17578 -0.49219,0.15625 -0.49219,0.15625h-1.07422c0,0 -2.375,0.19922 -4.46484,-1.97656c-2.28125,-2.375 -4.29297,-7.0625 -4.29297,-7.0625c0,0 -0.11719,-0.29297 0.00781,-0.44141c0.14063,-0.16797 0.52734,-0.17187 0.52734,-0.17187l2.57031,-0.01562c0,0 0.24219,0.04297 0.41797,0.16797c0.14453,0.10547 0.22266,0.30469 0.22266,0.30469c0,0 0.41797,1.05078 0.96484,2.00391c1.07812,1.85547 1.57812,2.26172 1.94141,2.0625c0.53125,-0.29297 0.37109,-2.625 0.37109,-2.625c0,0 0.01172,-0.84766 -0.26562,-1.22656c-0.21484,-0.28906 -0.62109,-0.375 -0.80078,-0.39844c-0.14453,-0.01953 0.09375,-0.35547 0.40234,-0.50781c0.46094,-0.22266 1.27734,-0.23828 2.24609,-0.22656c0.75,0.00781 0.96875,0.05469 1.26172,0.125c0.88672,0.21484 0.58594,1.04297 0.58594,3.02344c0,0.63672 -0.11328,1.52734 0.34375,1.82422c0.19922,0.12891 0.67969,0.01953 1.88281,-2.02734c0.57422,-0.96875 1,-2.10937 1,-2.10937c0,0 0.09375,-0.20312 0.24219,-0.28906c0.14844,-0.08984 0.34766,-0.0625 0.34766,-0.0625l2.70703,-0.01562c0,0 0.8125,-0.09766 0.94531,0.26953c0.13672,0.38672 -0.30469,1.28516 -1.41016,2.75781c-1.81641,2.41797 -2.01562,2.19141 -0.51172,3.58984z"></path>
    </g>
  </g>
</svg>