<svg xmlns="http://www.w3.org/2000/svg" x="0px" y="0px" width="30" height="30" viewBox="0 0 64 64" fill="white">
<path d="M 23.773438 12 C 12.855437 12 12 12.854437 12 23.773438 L 12 40.226562 C 12 51.144563 12.855438 52 23.773438 52 L 40.226562 52 C 51.144563 52 52 51.145563 52 40.226562 L 52 23.773438 C 52 12.854437 51.145563 12 40.226562 12 L 23.773438 12 z M 21.167969 16 L 42.832031 16 C 47.625031 16 48 16.374969 48 21.167969 L 48 42.832031 C 48 47.625031 47.624031 48 42.832031 48 L 21.167969 48 C 16.374969 48 16 47.624031 16 42.832031 L 16 21.167969 C 16 16.374969 16.374969 16 21.167969 16 z M 30.882812 24.205078 C 26.722813 24.205078 26.531344 25.181922 27.027344 25.419922 C 27.641344 25.714922 28.480469 26.071547 28.480469 27.810547 C 28.480469 30.359547 28.494766 31.867188 27.759766 31.867188 C 27.024766 31.867187 26.638453 31.522297 25.064453 28.654297 C 23.210453 25.276297 23.220109 24.886719 21.912109 24.886719 L 18.492188 24.886719 C 17.813188 24.886719 17.617109 25.441609 17.787109 25.849609 C 18.002109 26.367609 21.077359 33.324422 24.318359 36.607422 C 27.559359 39.891422 30.870469 39.792969 31.355469 39.792969 L 32.259766 39.792969 C 33.274766 39.792969 33.637609 39.211188 33.724609 38.742188 C 34.019609 37.155187 34.113328 36.21875 34.736328 36.21875 C 35.332328 36.21875 35.697953 36.587156 38.376953 39.285156 C 38.706953 39.617156 38.994234 39.792969 39.865234 39.792969 L 43.851562 39.792969 C 44.575562 39.792969 45.764375 39.673109 44.859375 38.162109 C 44.782375 38.037109 44.332625 37.046766 42.140625 35.009766 C 40.273625 33.269766 40.368078 33.078797 42.830078 29.466797 C 44.803078 26.571797 45.100172 26.043547 44.951172 25.560547 C 44.813172 25.115547 44.644094 24.943359 43.621094 24.943359 C 42.733094 24.943359 40.515828 24.886719 39.798828 24.886719 C 38.715828 24.886719 38.560109 25.681344 37.037109 28.777344 C 35.806109 31.280344 35.171766 32.027344 34.634766 32.027344 C 34.021766 32.027344 33.697266 31.389813 33.697266 29.007812 C 33.697266 25.623812 33.857813 24.205078 30.882812 24.205078 z"></path>
</svg>